<svg width="49" height="46" viewBox="0 0 49 46" fill="none" xmlns="http://www.w3.org/2000/svg">
<path d="M40.7924 18.5038L42.3237 18.5079V18.5038H40.7924ZM8.20745 18.5038H6.6762V18.5079L8.20745 18.5038ZM38.9958 21.7643L37.8259 22.7545L37.9974 22.9587L38.2302 23.0914L38.9958 21.7643ZM38.4404 19.1816C38.1129 18.9412 37.7032 18.8408 37.3015 18.9024C36.8999 18.9641 36.5392 19.1827 36.2987 19.5103C36.0583 19.8379 35.9579 20.2476 36.0195 20.6493C36.0812 21.0509 36.2999 21.4116 36.6275 21.652L38.4404 19.1816ZM12.3725 21.65C12.5345 21.531 12.6716 21.3812 12.7758 21.2091C12.8799 21.0371 12.9492 20.8463 12.9796 20.6475C13.0101 20.4487 13.0011 20.2459 12.9531 20.0506C12.9051 19.8553 12.8192 19.6714 12.7001 19.5093C12.5811 19.3472 12.4313 19.2102 12.2593 19.106C12.0873 19.0018 11.8964 18.9325 11.6977 18.9021C11.4989 18.8717 11.2961 18.8807 11.1008 18.9287C10.9055 18.9766 10.7215 19.0626 10.5595 19.1816L12.3725 21.65ZM24.5 11.5478C22.9238 11.5478 22.0295 11.6315 21.3231 11.7193C20.629 11.8051 20.2778 11.8663 19.6122 11.8663V14.9288C20.5105 14.9288 21.0924 14.8329 21.6947 14.7594C22.2868 14.6859 23.0545 14.6103 24.5 14.6103V11.5478ZM24.5 14.6103C25.9454 14.6103 26.7152 14.6859 27.3032 14.7594C27.9075 14.8329 28.4873 14.9288 29.3877 14.9288V11.8663C28.7221 11.8663 28.3709 11.8051 27.6768 11.7193C26.6227 11.5927 25.5615 11.5354 24.5 11.5478V14.6103ZM29.3877 14.9309C29.8226 14.9309 30.2289 14.8063 30.5208 14.6981C30.8393 14.5797 31.168 14.4245 31.4845 14.2612C32.1072 13.9407 32.8299 13.5119 33.4914 13.1301C34.1856 12.732 34.8389 12.3686 35.4249 12.1032C36.0537 11.8173 36.4131 11.7397 36.556 11.7397V8.67725C35.723 8.67725 34.8614 8.99779 34.1652 9.31016C33.4135 9.66362 32.679 10.0527 31.9643 10.476C31.2415 10.8925 30.6209 11.262 30.0819 11.5376C29.8165 11.6744 29.6123 11.7683 29.4571 11.8255C29.2795 11.8908 29.2795 11.8663 29.3877 11.8663V14.9288V14.9309ZM36.556 11.7397C37.2604 11.7397 37.9341 11.95 38.4078 12.3584C38.8406 12.73 39.2612 13.3996 39.2612 14.6757H42.3237C42.3237 12.634 41.605 11.0701 40.4066 10.037C39.251 9.0427 37.8096 8.67725 36.556 8.67725V11.7397ZM39.2612 14.6757V18.5038H42.3237V14.6757H39.2612ZM19.6122 11.8684C19.7204 11.8684 19.7204 11.8908 19.5428 11.8275C19.3292 11.7437 19.1206 11.6476 18.918 11.5397C18.379 11.262 17.7584 10.8925 17.0356 10.478C16.3415 10.0778 15.5738 9.645 14.8347 9.3122C14.1405 8.99779 13.2769 8.67725 12.4439 8.67725V11.7397C12.5868 11.7397 12.9462 11.8194 13.575 12.1032C14.161 12.3686 14.8163 12.732 15.5085 13.1301C16.17 13.5119 16.8927 13.9407 17.5154 14.2612C17.8319 14.4245 18.1606 14.5797 18.4791 14.6981C18.771 14.8063 19.1773 14.9309 19.6122 14.9309V11.8684ZM12.4439 8.67725C11.1903 8.67725 9.74891 9.0427 8.59333 10.037C7.39487 11.068 6.6762 12.634 6.6762 14.6736H9.7387C9.7387 13.3976 10.1593 12.73 10.5921 12.3584C11.0658 11.95 11.7416 11.7397 12.4439 11.7397V8.67725ZM6.6762 14.6757V18.5038H9.7387V14.6736H6.6762V14.6757ZM24.5 42.3647C27.4216 42.3647 31.7274 41.7829 35.3616 40.1107C39.0039 38.4366 42.3237 35.47 42.3237 30.6252H39.2612C39.2612 33.755 37.2052 35.8927 34.0835 37.33C30.9598 38.7673 27.1174 39.3022 24.5 39.3022V42.3647ZM40.1636 20.7762C39.6539 20.1794 39.0755 19.6428 38.4404 19.1816L36.6275 21.652C37.1175 22.0134 37.5115 22.383 37.8259 22.7525L40.1636 20.7762ZM39.2612 18.4977C39.2612 18.9019 39.1775 19.7431 38.9794 20.325C38.8672 20.6496 38.8039 20.6414 38.9182 20.5495C39.0365 20.4593 39.1764 20.4014 39.3239 20.3817C39.4714 20.362 39.6215 20.3812 39.7594 20.4372L38.2302 23.0914C38.5977 23.3037 39.0509 23.4589 39.5572 23.4324C40.0779 23.4058 40.5087 23.1996 40.8353 22.9383C41.4213 22.4687 41.7173 21.7827 41.8766 21.3131C42.2196 20.3107 42.3217 19.1081 42.3257 18.5079L39.2632 18.4977H39.2612ZM24.5 39.3022C21.8825 39.3022 18.0422 38.7673 14.9164 37.33C11.7926 35.8927 9.7387 33.753 9.7387 30.6252H6.6762C6.6762 35.47 9.99595 38.4366 13.6383 40.1107C17.2725 41.7849 21.5783 42.3647 24.5 42.3647V39.3022ZM9.7387 30.6252C9.7387 29.0163 9.62233 27.6913 9.77749 26.2805C9.92041 24.9636 10.294 23.7937 11.174 22.7545L8.83629 20.7741C7.44795 22.4177 6.9212 24.2307 6.73337 25.9477C6.55574 27.5749 6.6762 29.3369 6.6762 30.6252H9.7387ZM11.174 22.7545C11.5281 22.3406 11.9305 21.9685 12.3725 21.65L10.5595 19.1816C9.8857 19.6757 9.31608 20.2086 8.83629 20.7741L11.174 22.7545ZM6.6762 18.5079C6.67824 19.1081 6.78033 20.3107 7.12333 21.3131C7.28258 21.7827 7.57862 22.4687 8.16458 22.9383C8.49124 23.1996 8.92204 23.4058 9.44062 23.4324C9.94899 23.4569 10.4002 23.3037 10.7697 23.0914L9.24054 20.4372C9.37813 20.3816 9.52784 20.3626 9.67496 20.3823C9.82209 20.402 9.96155 20.4596 10.0797 20.5495C10.196 20.6414 10.1327 20.6496 10.0205 20.325C9.84374 19.7315 9.74895 19.1168 9.7387 18.4977L6.6762 18.5079Z" fill="#CD5252"/>
<path d="M26.1864 32.6669C26.1864 33.0202 25.4494 33.306 24.5408 33.306C23.6302 33.306 22.8932 33.0202 22.8932 32.6669C22.8932 32.3137 23.6302 32.0279 24.5408 32.0279C25.4494 32.0279 26.1864 32.3137 26.1864 32.6669ZM31.6458 27.7547C31.6458 28.6347 31.2028 29.3492 30.6577 29.3492C30.1125 29.3492 29.6695 28.6347 29.6695 27.7547C29.6695 26.8727 30.1125 26.1602 30.6577 26.1602C31.2028 26.1602 31.6458 26.8768 31.6458 27.7547ZM19.3958 27.7547C19.3958 28.6347 18.9528 29.3492 18.4077 29.3492C17.8625 29.3492 17.4195 28.6347 17.4195 27.7547C17.4195 26.8727 17.8625 26.1602 18.4077 26.1602C18.9528 26.1602 19.3958 26.8768 19.3958 27.7547Z" fill="#CD5252" stroke="#CD5252" stroke-width="1.5"/>
<path d="M44.9166 31.5827C43.9305 30.9437 39.6491 29.3491 38.0015 29.3491L44.9166 31.5827ZM41.6234 36.6869C40.6353 36.0478 38.3302 34.4533 36.6826 34.4533L41.6234 36.6869ZM4.08331 31.5827C5.07148 30.9437 9.35081 29.3491 10.9984 29.3491L4.08331 31.5827ZM7.37652 36.6869C8.36469 36.0478 10.6697 34.4533 12.3174 34.4533L7.37652 36.6869Z" fill="#CD5252"/>
<path d="M44.9166 31.5827C43.9305 30.9437 39.6491 29.3491 38.0015 29.3491M41.6234 36.6869C40.6353 36.0478 38.3302 34.4533 36.6826 34.4533M4.08331 31.5827C5.07148 30.9437 9.35081 29.3491 10.9984 29.3491M7.37652 36.6869C8.36469 36.0478 10.6697 34.4533 12.3174 34.4533" stroke="#CD5252" stroke-width="1.5" stroke-linecap="round"/>
</svg>
