<svg width="30" height="30" viewBox="0 0 30 30" fill="none" xmlns="http://www.w3.org/2000/svg">
<path d="M19.336 2.8125V5.39062H22.7865L19.2481 8.9291C15.252 5.83184 9.46292 6.1166 5.79846 9.78281C1.82346 13.7584 1.82346 20.226 5.80081 24.1992C7.71422 26.1069 10.3059 27.1781 13.0078 27.1781C15.7098 27.1781 18.3015 26.1069 20.2149 24.1992C23.8811 20.5324 24.1658 14.7457 21.0686 10.7496L24.6094 7.21348V10.6641H27.1875V2.8125H19.336ZM18.3938 22.3781C16.9643 23.8046 15.0273 24.6058 13.0078 24.6058C10.9884 24.6058 9.05137 23.8046 7.6219 22.3781C4.65178 19.4086 4.65178 14.5758 7.6219 11.6062C10.592 8.63672 15.4242 8.63613 18.3938 11.6062C21.3633 14.5764 21.3639 19.4086 18.3938 22.3781Z" fill="#2929CB"/>
</svg>
