<svg width="30" height="30" viewBox="0 0 30 30" fill="none" xmlns="http://www.w3.org/2000/svg">
<path d="M25.1953 11.1328C25.1953 5.51133 20.6215 0.9375 15 0.9375C9.37852 0.9375 4.80469 5.51133 4.80469 11.1328C4.80469 16.3178 8.69531 20.6115 13.7109 21.2467V23.0859H11.6016C11.2597 23.0859 10.9318 23.2217 10.6901 23.4635C10.4483 23.7052 10.3125 24.0331 10.3125 24.375C10.3125 24.7169 10.4483 25.0448 10.6901 25.2865C10.9318 25.5283 11.2597 25.6641 11.6016 25.6641H13.7109V27.7734C13.7109 28.1153 13.8467 28.4432 14.0885 28.6849C14.3302 28.9267 14.6581 29.0625 15 29.0625C15.3419 29.0625 15.6698 28.9267 15.9115 28.6849C16.1533 28.4432 16.2891 28.1153 16.2891 27.7734V25.6641H18.3984C18.7403 25.6641 19.0682 25.5283 19.3099 25.2865C19.5517 25.0448 19.6875 24.7169 19.6875 24.375C19.6875 24.0331 19.5517 23.7052 19.3099 23.4635C19.0682 23.2217 18.7403 23.0859 18.3984 23.0859H16.2891V21.2467C21.3047 20.6115 25.1953 16.3178 25.1953 11.1328ZM7.38281 11.1328C7.38281 6.93281 10.8 3.51562 15 3.51562C19.2 3.51562 22.6172 6.93281 22.6172 11.1328C22.6172 15.3328 19.2 18.75 15 18.75C10.8 18.75 7.38281 15.3328 7.38281 11.1328Z" fill="#E34545"/>
</svg>
